# xmcd
#
# Track frame offsets: 
#        150
#        12890
#        25012
#        36791
#        48146
#        61046
#        72332
#        86990
#        98226
#        109885
#        120692
#        133066
#        144139
#        156054
#        168080
#        179002
#        190012
#        199063
#        212076
#        224018
#        236455
#        248369
#        259811
#        270741
#        283128
#        293355
#        305294
#        316534
#        328259
#        338436
#
# Disc length: 4660 seconds
#
# Revision: 0
# Processed by: cddbd v1.5.2PL0 Copyright (c) Steve Scherf et al.
# Submitted via: ExactAudioCopyFreeDBPlugin 1.0
#
DISCID=a612321e
DTITLE=Big John Greer - I'm The Fat Man
DYEAR=2007
DGENRE=R&B
TTITLE0=Drinkin' Wine, Spo-Dee-O-Dee
TTITLE1=I Ain't Got Nothin' To Lose
TTITLE2=Rockin' With Big John
TTITLE3=Long Tall Gal
TTITLE4=If I Told You Once
TTITLE5=Rocking Jenny Jones
TTITLE6=Red Juice
TTITLE7=I Want Ya, I Need Ya
TTITLE8=Big John's A Blowin'
TTITLE9=Clambake Boogie
TTITLE10=Have Another Drink And Talk To Me
TTITLE11=Strong Red Whiskey
TTITLE12=Got You On My Mind
TTITLE13=You Played On My Piano
TTITLE14=Slow And Easy
TTITLE15=I'm The Fat Man
TTITLE16=I'll Never Let You Go
TTITLE17=Confusion Blues
TTITLE18=Ride Pretty Baby
TTITLE19=Don't Worry About It
TTITLE20=Drinkin' Fool
TTITLE21=Too Long
TTITLE22=Bottle It Up And Go
TTITLE23=Play Me Some Loud Music
TTITLE24=Lucky, Lucky Me
TTITLE25=Soon, Soon, Soon
TTITLE26=Blam!
TTITLE27=Can't Stand It Any Longer
TTITLE28=Come Back Maybelline
TTITLE29=Night Crawlin'
EXTD=
EXTT0=
EXTT1=
EXTT2=
EXTT3=
EXTT4=
EXTT5=
EXTT6=
EXTT7=
EXTT8=
EXTT9=
EXTT10=
EXTT11=
EXTT12=
EXTT13=
EXTT14=
EXTT15=
EXTT16=
EXTT17=
EXTT18=
EXTT19=
EXTT20=
EXTT21=
EXTT22=
EXTT23=
EXTT24=
EXTT25=
EXTT26=
EXTT27=
EXTT28=
EXTT29=
PLAYORDER=
